<svg width="60" height="60" viewBox="0 0 60 60" fill="none" xmlns="http://www.w3.org/2000/svg">
<path d="M58.125 48.75C54.1406 48.75 52.0519 49.8638 50.2087 50.8463C48.5456 51.7331 47.1075 52.5 44.0588 52.5C41.01 52.5 39.5719 51.7331 37.9088 50.8463C36.0656 49.8638 33.9788 48.75 29.9925 48.75C26.0081 48.75 23.9231 49.8638 22.0819 50.8463C20.4188 51.7331 18.9806 52.5 15.9356 52.5C12.8887 52.5 11.4525 51.7331 9.7875 50.8463C7.94625 49.8638 5.85938 48.75 1.875 48.75C0.84 48.75 0 49.59 0 50.625C0 51.66 0.84 52.5 1.875 52.5C4.92188 52.5 6.35812 53.2669 8.02312 54.1537C9.86437 55.1363 11.9512 56.25 15.9356 56.25C19.92 56.25 22.005 55.1363 23.8463 54.1537C25.5094 53.2669 26.9475 52.5 29.9925 52.5C33.0394 52.5 34.4794 53.2669 36.1425 54.1537C37.9856 55.1363 40.0744 56.25 44.0588 56.25C48.0431 56.25 50.1319 55.1363 51.975 54.1537C53.6381 53.2669 55.0781 52.5 58.125 52.5C59.16 52.5 60 51.66 60 50.625C60 49.59 59.16 48.75 58.125 48.75Z" fill="#2D4B6D"/>
<path d="M1.875 45C4.92188 45 6.35812 45.7669 8.02312 46.6537C9.86437 47.6363 11.9512 48.75 15.9356 48.75C19.92 48.75 22.005 47.6363 23.8463 46.6537C25.5094 45.7669 26.9475 45 29.9925 45C33.0394 45 34.4794 45.7669 36.1425 46.6537C37.9856 47.6363 40.0744 48.75 44.0588 48.75C48.0431 48.75 50.1319 47.6363 51.975 46.6537C53.6381 45.7669 55.0781 45 58.125 45C59.16 45 60 44.16 60 43.125C60 42.09 59.16 41.25 58.125 41.25C54.1406 41.25 52.0519 42.3638 50.2087 43.3463C48.5456 44.2331 47.1075 45 44.0588 45C41.01 45 39.5719 44.2331 37.9088 43.3463C36.0656 42.3638 33.9788 41.25 29.9925 41.25C26.0081 41.25 23.9231 42.3638 22.0819 43.3463C20.4188 44.2331 18.9806 45 15.9356 45C12.8887 45 11.4525 44.2331 9.7875 43.3463C7.94625 42.3638 5.85938 41.25 1.875 41.25C0.84 41.25 0 42.09 0 43.125C0 44.16 0.84 45 1.875 45Z" fill="#2D4B6D"/>
<path d="M18.75 33.75C24.9544 33.75 30 28.7044 30 22.5C30 16.2956 24.9544 11.25 18.75 11.25C12.5456 11.25 7.5 16.2956 7.5 22.5C7.5 28.7044 12.5456 33.75 18.75 33.75ZM18.75 15C22.8863 15 26.25 18.3637 26.25 22.5C26.25 26.6363 22.8863 30 18.75 30C14.6137 30 11.25 26.6363 11.25 22.5C11.25 18.3637 14.6137 15 18.75 15Z" fill="#FFFA66"/>
<path d="M18.75 9.375C19.785 9.375 20.625 8.535 20.625 7.5V5.625C20.625 4.59 19.785 3.75 18.75 3.75C17.715 3.75 16.875 4.59 16.875 5.625V7.5C16.875 8.535 17.715 9.375 18.75 9.375Z" fill="#FFFA66"/>
<path d="M16.875 37.5V39.375C16.875 40.41 17.715 41.25 18.75 41.25C19.785 41.25 20.625 40.41 20.625 39.375V37.5C20.625 36.465 19.785 35.625 18.75 35.625C17.715 35.625 16.875 36.465 16.875 37.5Z" fill="#FFFA66"/>
<path d="M31.875 22.5C31.875 23.535 32.715 24.375 33.75 24.375H35.625C36.66 24.375 37.5 23.535 37.5 22.5C37.5 21.465 36.66 20.625 35.625 20.625H33.75C32.715 20.625 31.875 21.465 31.875 22.5Z" fill="#FFFA66"/>
<path d="M1.875 24.375H3.75C4.785 24.375 5.625 23.535 5.625 22.5C5.625 21.465 4.785 20.625 3.75 20.625H1.875C0.84 20.625 0 21.465 0 22.5C0 23.535 0.84 24.375 1.875 24.375Z" fill="#FFFA66"/>
<path d="M29.3569 13.768C29.8369 13.768 30.3169 13.5843 30.6825 13.2186L32.0082 11.893C32.7413 11.1599 32.7413 9.97489 32.0082 9.24177C31.275 8.50864 30.0882 8.51052 29.3569 9.24177L28.0313 10.5674C27.2982 11.3005 27.2982 12.4855 28.0313 13.2186C28.3969 13.5843 28.8769 13.768 29.3569 13.768Z" fill="#FFFA66"/>
<path d="M6.81749 31.7813L5.49186 33.1069C4.75874 33.84 4.75874 35.025 5.49186 35.7582C5.85749 36.1238 6.33749 36.3075 6.81749 36.3075C7.29749 36.3075 7.77749 36.1238 8.14311 35.7582L9.46874 34.4325C10.2019 33.6994 10.2019 32.5144 9.46874 31.7813C8.73561 31.0482 7.55061 31.0482 6.81749 31.7813Z" fill="#FFFA66"/>
<path d="M30.6825 31.7813C29.9494 31.0482 28.7644 31.0482 28.0313 31.7813C27.2982 32.5144 27.2982 33.6994 28.0313 34.4325L29.3569 35.7582C29.7225 36.1238 30.2025 36.3075 30.6825 36.3075C31.1625 36.3075 31.6425 36.1238 32.0082 35.7582C32.7413 35.025 32.7413 33.84 32.0082 33.1069L30.6825 31.7813Z" fill="#FFFA66"/>
<path d="M6.81749 13.2189C7.18311 13.5845 7.66311 13.7682 8.14311 13.7682C8.62311 13.7682 9.10311 13.5864 9.46874 13.2189C10.2019 12.4857 10.2019 11.3007 9.46874 10.5676L8.14311 9.24198C7.40999 8.50886 6.22499 8.50886 5.49186 9.24198C4.75874 9.97511 4.75874 11.1601 5.49186 11.8932L6.81749 13.2189Z" fill="#FFFA66"/>
</svg>
