<svg width="60" height="60" viewBox="0 0 60 60" fill="none" xmlns="http://www.w3.org/2000/svg">
<path d="M59.23 31.7496C58.3585 31.0702 57.102 31.2258 56.4229 32.0968C54.3798 34.7167 50.4238 34.7212 48.377 32.0975C44.7437 27.4404 37.7335 27.4263 34.0745 32.0335C34.0569 32.0541 34.0396 32.0752 34.023 32.0968C31.9799 34.7167 28.0239 34.7212 25.9771 32.0975C22.3438 27.4404 15.3336 27.4263 11.6745 32.0335C11.657 32.0541 11.6397 32.0752 11.6231 32.0968C9.57948 34.7173 5.62372 34.7205 3.57705 32.0975C2.89772 31.2265 1.64089 31.0712 0.769962 31.7508C-0.100853 32.4303 -0.256126 33.687 0.423323 34.5579C4.04967 39.2062 11.0598 39.2378 14.7257 34.6219C14.7433 34.6013 14.7605 34.5802 14.7772 34.5586C16.8208 31.9383 20.7762 31.9342 22.8232 34.5579C26.4496 39.2062 33.4597 39.2378 37.1256 34.6219C37.1432 34.6013 37.1604 34.5802 37.1771 34.5586C39.2207 31.9383 43.1761 31.9342 45.2231 34.5579C48.868 39.2301 55.9278 39.236 59.5769 34.5566C60.2563 33.6855 60.1008 32.4289 59.23 31.7496Z" fill="#2D4B6D"/>
<path d="M48.3773 44.6864C44.7516 40.0394 37.74 40.007 34.0743 44.6224C34.0569 44.643 34.0396 44.6641 34.023 44.6855C31.9795 47.3056 28.024 47.3101 25.9771 44.6863C22.3331 40.0157 15.2717 40.0089 11.6232 44.6875C10.9439 45.5586 11.0994 46.8153 11.9704 47.4946C12.8417 48.1738 14.0983 48.0182 14.7775 47.1474C16.8207 44.5273 20.7767 44.523 22.8234 47.1467C26.4554 51.8023 33.4668 51.8178 37.126 47.2107C37.1436 47.1901 37.1607 47.169 37.1774 47.1474C39.2206 44.5273 43.1766 44.523 45.2234 47.1467C45.9028 48.0175 47.1595 48.1728 48.0306 47.4933C48.9014 46.814 49.0566 45.5573 48.3773 44.6864Z" fill="#2D4B6D"/>
<path d="M20.8704 15.5181L16.6821 10.1209C15.8822 9.09037 14.3227 9.08944 13.5221 10.1209L11.9786 12.1096L10.4354 10.121C9.6357 9.09061 8.07594 9.08944 7.27532 10.121L3.08707 15.5181C2.40984 16.3908 2.56828 17.6471 3.44097 18.3243C4.31378 19.0016 5.5699 18.843 6.24724 17.9704L8.85547 14.6094L9.44715 15.3717C8.82945 16.1674 8.78035 16.9357 9.11738 17.6239C9.45324 18.3097 10.15 18.7442 10.9135 18.7442H13.0438C13.8074 18.7442 14.5042 18.3096 14.84 17.6239C15.1731 16.9435 15.1339 16.1748 14.5102 15.3717L15.1019 14.6094L17.7101 17.9704C18.3876 18.8434 19.6438 19.0012 20.5164 18.3243C21.3892 17.6471 21.5476 16.3908 20.8704 15.5181Z" fill="#363636"/>
<path d="M54.2471 20.9153L50.0589 15.5181C49.259 14.4876 47.6994 14.4867 46.8988 15.5181L45.3558 17.5068L43.8126 15.5181C43.0127 14.4876 41.4532 14.4867 40.6525 15.5181L36.4643 20.9153C35.7866 21.788 35.945 23.0443 36.8177 23.7216C37.6906 24.3989 38.9469 24.2403 39.624 23.3675L42.2322 20.0065L42.8239 20.7689C42.2058 21.5651 42.1572 22.3331 42.4941 23.0211C42.83 23.7069 43.5268 24.1414 44.2902 24.1414H46.4206C47.1841 24.1414 47.8808 23.7068 48.2167 23.0211C48.5507 22.3391 48.5092 21.5702 47.8869 20.7689L48.4786 20.0065L51.0868 23.3675C51.7643 24.2406 53.0205 24.3983 53.8931 23.7216C54.7659 23.0443 54.9244 21.788 54.2471 20.9153Z" fill="#363636"/>
</svg>
