<svg width="60" height="60" viewBox="0 0 60 60" fill="none" xmlns="http://www.w3.org/2000/svg">
<path d="M58.125 44.0625C54.1406 44.0625 52.0519 45.1763 50.2087 46.1588C48.5456 47.0456 47.1075 47.8125 44.0588 47.8125C41.01 47.8125 39.5719 47.0456 37.9088 46.1588C36.0656 45.1763 33.9788 44.0625 29.9925 44.0625C26.0081 44.0625 23.9231 45.1763 22.0819 46.1588C20.4188 47.0456 18.9806 47.8125 15.9356 47.8125C12.8887 47.8125 11.4525 47.0456 9.7875 46.1588C7.94625 45.1763 5.85938 44.0625 1.875 44.0625C0.84 44.0625 0 44.9025 0 45.9375C0 46.9725 0.84 47.8125 1.875 47.8125C4.92188 47.8125 6.35812 48.5794 8.02312 49.4662C9.86437 50.4488 11.9512 51.5625 15.9356 51.5625C19.92 51.5625 22.005 50.4488 23.8463 49.4662C25.5094 48.5794 26.9475 47.8125 29.9925 47.8125C33.0394 47.8125 34.4794 48.5794 36.1425 49.4662C37.9856 50.4488 40.0744 51.5625 44.0588 51.5625C48.0431 51.5625 50.1319 50.4488 51.975 49.4662C53.6381 48.5794 55.0781 47.8125 58.125 47.8125C59.16 47.8125 60 46.9725 60 45.9375C60 44.9025 59.16 44.0625 58.125 44.0625Z" fill="#2D4B6D"/>
<path d="M1.875 40.3125C4.92188 40.3125 6.35812 41.0794 8.02312 41.9662C9.86437 42.9488 11.9512 44.0625 15.9356 44.0625C19.92 44.0625 22.005 42.9488 23.8463 41.9662C25.5094 41.0794 26.9475 40.3125 29.9925 40.3125C33.0394 40.3125 34.4794 41.0794 36.1425 41.9662C37.9856 42.9488 40.0744 44.0625 44.0588 44.0625C48.0431 44.0625 50.1319 42.9488 51.975 41.9662C53.6381 41.0794 55.0781 40.3125 58.125 40.3125C59.16 40.3125 60 39.4725 60 38.4375C60 37.4025 59.16 36.5625 58.125 36.5625C54.1406 36.5625 52.0519 37.6763 50.2087 38.6588C48.5456 39.5456 47.1075 40.3125 44.0588 40.3125C41.01 40.3125 39.5719 39.5456 37.9088 38.6588C36.0656 37.6763 33.9788 36.5625 29.9925 36.5625C26.0081 36.5625 23.9231 37.6763 22.0819 38.6588C20.4188 39.5456 18.9806 40.3125 15.9356 40.3125C12.8887 40.3125 11.4525 39.5456 9.7875 38.6588C7.94625 37.6763 5.85938 36.5625 1.875 36.5625C0.84 36.5625 0 37.4025 0 38.4375C0 39.4725 0.84 40.3125 1.875 40.3125Z" fill="#2D4B6D"/>
<path d="M16.2825 34.6875C19.95 34.6875 23.4319 32.9719 25.8356 29.9812C26.1844 29.55 26.3212 28.9838 26.2125 28.44C26.1037 27.8962 25.7587 27.4256 25.2712 27.1613C20.8837 24.7687 18.1575 20.0381 18.1575 14.8144C18.1575 13.4981 18.3394 12.1744 18.6994 10.8825C18.8512 10.335 18.6956 9.74438 18.3675 9.28313C18.0394 8.82188 17.4694 8.5275 16.905 8.49187C16.7006 8.46187 16.4944 8.4375 16.2825 8.4375C9.37312 8.4375 3.75 14.325 3.75 21.5625C3.75 28.8 9.37312 34.6875 16.2825 34.6875ZM14.5706 12.3863C14.4619 13.1925 14.4075 14.0025 14.4075 14.8125C14.4075 20.5538 17.04 25.8375 21.4087 29.1225C19.92 30.2925 18.1294 30.9375 16.2825 30.9375C11.4394 30.9375 7.5 26.7319 7.5 21.5625C7.5 17.0363 10.5187 13.2506 14.5706 12.3863Z" fill="#FFFA66"/>
</svg>
