<svg width="60" height="60" viewBox="0 0 60 60" fill="none" xmlns="http://www.w3.org/2000/svg">
<path d="M59.2299 34.7605C58.3588 34.0808 57.1019 34.2367 56.4228 35.1077C54.3797 37.7278 50.4237 37.732 48.3769 35.1085C44.7433 30.4511 37.7331 30.4375 34.0743 35.0447C34.0567 35.0652 34.0395 35.0864 34.0229 35.1078C31.9797 37.7279 28.0237 37.7321 25.9769 35.1087C22.3433 30.4512 15.3332 30.4376 11.6744 35.0448C11.6568 35.0653 11.6396 35.0865 11.6229 35.108C9.57977 37.728 5.62388 37.7322 3.57686 35.1088C2.89753 34.238 1.64069 34.0826 0.769877 34.7621C-0.101057 35.4416 -0.256212 36.6983 0.423238 37.5692C4.04947 42.2172 11.0594 42.2493 14.7257 37.6332C14.7433 37.6126 14.7604 37.5915 14.7771 37.5699C16.8208 34.9495 20.7763 34.9453 22.8232 37.5691C26.4494 42.2171 33.4593 42.2492 37.1256 37.6331C37.1432 37.6125 37.1603 37.5914 37.1771 37.5698C39.2207 34.9494 43.1762 34.9452 45.2231 37.569C48.8689 42.2421 55.9286 42.2459 59.5769 37.5677C60.2562 36.6963 60.1009 35.4396 59.2299 34.7605Z" fill="#2D4B6D"/>
<path d="M48.3773 47.6971C44.7516 43.0502 37.74 43.0177 34.0745 47.6332C34.0569 47.6537 34.0397 47.675 34.023 47.6964C31.9798 50.3164 28.0239 50.321 25.9771 47.6972C22.3332 43.0266 15.2717 43.0197 11.6232 47.6985C10.9439 48.5696 11.0994 49.8264 11.9704 50.5056C12.8415 51.1848 14.0983 51.0293 14.7775 50.1584C16.8211 47.5376 20.777 47.5344 22.8235 50.1576C26.4554 54.8128 33.4671 54.8288 37.126 50.2215C37.1436 50.2009 37.1607 50.1798 37.1775 50.1583C39.2211 47.5375 43.177 47.5343 45.2234 50.1574C45.9029 51.0281 47.1596 51.1834 48.0306 50.5042C48.9012 49.8249 49.0566 48.5682 48.3773 47.6971Z" fill="#2D4B6D"/>
<path d="M39.2653 15.6021H37.0914C36.9324 15.039 36.7086 14.5033 36.4275 14.0033L37.9661 12.4649C38.7471 11.6839 38.7471 10.4177 37.9661 9.63643C37.1853 8.85538 35.9189 8.85538 35.1377 9.63643L33.5991 11.175C33.0991 10.894 32.5633 10.67 32.0002 10.511V8.33695C32.0002 7.23246 31.1048 6.33691 30.0002 6.33691C28.8957 6.33691 28.0001 7.23234 28.0001 8.33695V10.5109C27.4371 10.6699 26.9012 10.8938 26.4012 11.1749L24.8627 9.63643C24.0818 8.85526 22.8153 8.8555 22.0343 9.63643C21.2532 10.4175 21.2532 11.6838 22.0343 12.4649L23.5728 14.0033C23.2918 14.5033 23.0679 15.039 22.909 15.6021H20.7351C19.6307 15.6021 18.7351 16.4975 18.7351 17.6021C18.7351 18.7066 19.6304 19.6021 20.7351 19.6021H22.9091C23.0681 20.1652 23.292 20.7011 23.5731 21.201L22.0345 22.7396C21.2535 23.5205 21.2535 24.7867 22.0345 25.568C22.8153 26.3491 24.0816 26.3492 24.8629 25.568L26.4015 24.0295C26.9015 24.3105 27.4372 24.5344 28.0003 24.6933V26.8674C28.0003 27.9719 28.8957 28.8674 30.0003 28.8674C31.1048 28.8674 32.0003 27.972 32.0003 26.8674V24.6933C32.5634 24.5343 33.0991 24.3104 33.5991 24.0295L35.1377 25.568C35.9185 26.3491 37.1848 26.3492 37.9661 25.568C38.7471 24.787 38.7471 23.5208 37.9661 22.7396L36.4275 21.201C36.7086 20.701 36.9325 20.1652 37.0915 19.6021H39.2655C40.3699 19.6021 41.2655 18.7067 41.2655 17.6021C41.2654 16.4976 40.3699 15.6021 39.2653 15.6021ZM30.0001 20.9715C28.1422 20.9715 26.6307 19.46 26.6307 17.6021C26.6307 15.7442 28.1422 14.2327 30.0001 14.2327C31.8579 14.2327 33.3694 15.7443 33.3694 17.6021C33.3694 19.46 31.8579 20.9715 30.0001 20.9715Z" fill="#FF4D4D"/>
</svg>
