<svg width="40" height="40" viewBox="0 0 40 40" fill="none" xmlns="http://www.w3.org/2000/svg">
<g clip-path="url(#clip0_4_74)">
<path d="M37.0247 34.112H18.5638C17.4571 34.1163 16.3817 33.692 15.5129 32.9083C14.644 32.1246 14.0329 31.0277 13.779 29.7963L13.2914 27.4621C13.2929 27.4476 13.2929 27.433 13.2914 27.4185L9.26855 8.1741H40V22.8633C39.998 24.2982 39.4984 25.6737 38.6108 26.6884C37.7232 27.7031 36.52 28.2741 35.2647 28.2764H15.4209L15.619 29.2911C15.7741 30.0454 16.1481 30.7174 16.6801 31.1975C17.2121 31.6776 17.8708 31.9374 18.5486 31.9346H37.0247C37.2773 31.9346 37.5196 32.0493 37.6982 32.2535C37.8768 32.4576 37.9771 32.7346 37.9771 33.0233C37.9771 33.3121 37.8768 33.589 37.6982 33.7932C37.5196 33.9973 37.2773 34.112 37.0247 34.112ZM14.9676 26.099H35.2647C35.6364 26.099 36.0045 26.0153 36.3479 25.8527C36.6913 25.6901 37.0034 25.4517 37.2662 25.1513C37.529 24.8508 37.7375 24.4941 37.8798 24.1015C38.022 23.7089 38.0952 23.2882 38.0952 22.8633V10.3516H11.6838L14.9676 26.099Z" fill="white"/>
<path d="M10.4762 10.3517C10.2722 10.3516 10.0737 10.2766 9.90978 10.1379C9.74588 9.99911 9.62527 9.80386 9.56571 9.58086L8.22095 4.54221C8.0415 3.85607 7.67245 3.25483 7.16906 2.82854C6.66567 2.40224 6.05503 2.17383 5.42857 2.17749H0.952381C0.699794 2.17749 0.457552 2.06278 0.278946 1.85861C0.10034 1.65443 0 1.37751 0 1.08876C0 0.800007 0.10034 0.523083 0.278946 0.318907C0.457552 0.11473 0.699794 2.46425e-05 0.952381 2.46425e-05H5.42857C6.46505 -0.00352386 7.47474 0.37625 8.30688 1.08265C9.13903 1.78904 9.74899 2.78417 10.0457 3.91946L11.3867 8.95811C11.4603 9.23415 11.4351 9.53233 11.3165 9.78711C11.1979 10.0419 10.9957 10.2324 10.7543 10.3168C10.6638 10.3453 10.5699 10.3571 10.4762 10.3517Z" fill="white"/>
<path d="M20.0002 40C19.515 40 19.0407 39.8355 18.6372 39.5273C18.2338 39.2192 17.9193 38.7811 17.7336 38.2687C17.5479 37.7562 17.4994 37.1923 17.594 36.6483C17.6887 36.1042 17.9223 35.6045 18.2654 35.2123C18.6085 34.8201 19.0457 34.5529 19.5216 34.4447C19.9975 34.3365 20.4908 34.3921 20.9391 34.6043C21.3873 34.8166 21.7705 35.1761 22.0401 35.6373C22.3097 36.0985 22.4535 36.6407 22.4535 37.1954C22.4525 37.9389 22.1937 38.6516 21.7339 39.1773C21.274 39.703 20.6506 39.9988 20.0002 40ZM20.0002 36.5683C19.8917 36.5683 19.7857 36.6051 19.6954 36.674C19.6052 36.7429 19.5349 36.8408 19.4934 36.9554C19.4519 37.07 19.441 37.1961 19.4622 37.3178C19.4833 37.4394 19.5356 37.5511 19.6123 37.6388C19.689 37.7265 19.7868 37.7863 19.8932 37.8105C19.9996 37.8347 20.1099 37.8223 20.2101 37.7748C20.3104 37.7273 20.3961 37.6469 20.4563 37.5438C20.5166 37.4407 20.5488 37.3194 20.5488 37.1954C20.5458 37.0314 20.4867 36.8752 20.3841 36.7604C20.2816 36.6456 20.1437 36.5813 20.0002 36.5814V36.5683Z" fill="white"/>
<path d="M33.4972 40C33.0119 40 32.5376 39.8355 32.1342 39.5273C31.7307 39.2192 31.4163 38.7811 31.2306 38.2687C31.0449 37.7562 30.9963 37.1923 31.091 36.6483C31.1856 36.1042 31.4193 35.6045 31.7624 35.2123C32.1055 34.8201 32.5426 34.5529 33.0185 34.4447C33.4944 34.3365 33.9877 34.3921 34.436 34.6043C34.8843 34.8166 35.2675 35.1761 35.537 35.6373C35.8066 36.0985 35.9505 36.6407 35.9505 37.1954C35.9495 37.9389 35.6907 38.6516 35.2308 39.1773C34.7709 39.703 34.1475 39.9988 33.4972 40ZM33.4972 36.5683C33.3887 36.5683 33.2826 36.6051 33.1924 36.674C33.1022 36.7429 33.0319 36.8408 32.9903 36.9554C32.9488 37.07 32.938 37.1961 32.9591 37.3178C32.9803 37.4394 33.0325 37.5511 33.1093 37.6388C33.186 37.7265 33.2837 37.7863 33.3901 37.8105C33.4966 37.8347 33.6069 37.8223 33.7071 37.7748C33.8073 37.7273 33.893 37.6469 33.9533 37.5438C34.0136 37.4407 34.0457 37.3194 34.0457 37.1954C34.0427 37.0314 33.9836 36.8752 33.8811 36.7604C33.7785 36.6456 33.6407 36.5813 33.4972 36.5814V36.5683Z" fill="white"/>
</g>
<defs>
<clipPath id="clip0_4_74">
<rect width="40" height="40" fill="white"/>
</clipPath>
</defs>
</svg>
