<svg width="60" height="60" viewBox="0 0 60 60" fill="none" xmlns="http://www.w3.org/2000/svg">
<path d="M56.567 51.8119L46.3039 49.0619L56.567 46.312C56.8372 46.2396 57.0676 46.0627 57.2075 45.8204C57.3474 45.578 57.3852 45.2901 57.3128 45.0198L55.6746 38.9059C55.5238 38.3431 54.9459 38.0093 54.3826 38.1599L30 44.6933L5.6173 38.1599C5.05462 38.0095 4.47612 38.3432 4.32526 38.9059L2.68707 45.0198C2.61468 45.2901 2.65252 45.578 2.79244 45.8204C2.93235 46.0627 3.16272 46.2394 3.43305 46.312L13.6961 49.0619L3.43305 51.8119C3.16285 51.8843 2.93248 52.0611 2.79257 52.3035C2.65266 52.5458 2.61481 52.8337 2.68721 53.1039L4.32526 59.2178C4.45159 59.6891 4.87778 59.9999 5.34367 59.9999C5.434 59.9999 5.52591 59.9882 5.61743 59.9638L30.0001 53.4304L54.3827 59.9638C54.4743 59.9883 54.566 59.9999 54.6565 59.9999C55.1222 59.9999 55.5486 59.6891 55.6749 59.2178L57.3131 53.1039C57.3855 52.8336 57.3476 52.5457 57.2077 52.3033C57.0678 52.061 56.8372 51.8843 56.567 51.8119ZM4.99805 44.5469L6.09017 40.4709L25.9239 45.7854L17.772 47.9697L4.99805 44.5469ZM4.99805 53.5768L53.9097 40.4709L55.0019 44.5469L6.09017 57.6528L4.99805 53.5768ZM53.9097 57.6528L34.076 52.3383L42.2279 50.154L55.0019 53.5768L53.9097 57.6528Z" fill="white"/>
<path d="M30 41.1428C38.7254 41.1428 45.824 34.0442 45.824 25.3188C45.824 20.0923 43.8011 14.7405 39.8114 9.41201C39.4624 8.94573 38.8012 8.85079 38.3346 9.19984C37.8682 9.54902 37.7733 10.2102 38.1225 10.6766C41.8328 15.6321 43.7142 20.5584 43.7142 25.3189C43.7142 32.881 37.562 39.0331 30 39.0331C22.4379 39.0331 16.2858 32.881 16.2858 25.3189C16.2858 21.6067 17.5179 15.7241 23.388 8.78076C26.9548 4.56193 30.579 1.93817 30.6147 1.91246C31.0881 1.5729 31.1967 0.913828 30.8571 0.440424C30.5176 -0.033111 29.8583 -0.141506 29.3851 0.198052C29.23 0.309216 25.544 2.97294 21.8105 7.37875C16.8159 13.2727 14.1759 19.4764 14.1759 25.3189C14.1759 34.0442 21.2746 41.1428 30 41.1428Z" fill="white"/>
<path d="M35.5493 7.5694C35.7575 7.79819 36.0433 7.91449 36.33 7.91449C36.5833 7.91449 36.8374 7.82377 37.0396 7.63995C37.4705 7.2479 37.5022 6.58065 37.1101 6.14971C36.3173 5.2782 35.4735 4.41605 34.6023 3.5874C34.18 3.18586 33.5122 3.20261 33.1108 3.62485C32.7093 4.04696 32.726 4.71473 33.1483 5.11627C33.9827 5.90998 34.7906 6.7352 35.5493 7.5694Z" fill="white"/>
<path d="M29.3852 14.967C29.3035 15.0256 27.3608 16.4294 25.4031 18.7396C22.7586 21.8602 21.361 25.1605 21.361 28.2839C21.361 33.0476 25.2364 36.923 30.0001 36.923C34.7638 36.923 38.6393 33.0476 38.6393 28.2839C38.6393 27.7013 38.1669 27.2289 37.5843 27.2289C37.0017 27.2289 36.5294 27.7013 36.5294 28.2839C36.5294 31.8841 33.6004 34.8132 30.0001 34.8132C26.3999 34.8132 23.4708 31.8841 23.4708 28.2839C23.4708 23.0248 28.2696 18.5923 30.0014 17.1643C30.3356 17.4386 30.7825 17.8234 31.2845 18.3019C31.7061 18.7039 32.3739 18.688 32.776 18.2663C33.1781 17.8446 33.1622 17.1768 32.7404 16.7748C31.5542 15.6437 30.6527 14.994 30.6149 14.9669C30.2474 14.7034 29.7527 14.7034 29.3852 14.967Z" fill="white"/>
<path d="M36.4347 21.2481C36.1936 20.8598 35.9306 20.4684 35.6529 20.0848C35.3113 19.613 34.6518 19.5072 34.1798 19.8489C33.7078 20.1906 33.6023 20.85 33.9439 21.322C34.1924 21.6654 34.4274 22.0148 34.6422 22.3608C34.9384 22.8381 35.2037 23.3207 35.4307 23.7957C35.6118 24.1745 35.9895 24.3958 36.3831 24.3958C36.5357 24.3958 36.6906 24.3626 36.8374 24.2924C37.363 24.0411 37.5854 23.4113 37.3342 22.8857C37.0741 22.3416 36.7715 21.7906 36.4347 21.2481Z" fill="white"/>
</svg>
