<svg width="60" height="60" viewBox="0 0 60 60" fill="none" xmlns="http://www.w3.org/2000/svg">
<path d="M59.4204 36.8001C57.6204 34.4001 55.8204 34.4001 51.4203 36.7002L42.8203 42.0001C41.6203 42.7 38.9203 42.9001 36.4203 42.9001C36.9204 42.0001 36.7203 40.9 35.8203 39.6001C34.2204 37.3 31.5204 35.9001 28.6203 35.9001H24.7203C22.6203 35.9001 20.6203 35.3001 19.0203 34.1001C15.412 31.3939 9.76957 34.3386 7.02035 36.095V34.0002H0.0203857V60.0001H7.02035V57.0001H20.0203C22.0203 57.0001 24.1203 56.8 26.1203 56.7001L39.1202 54.7C39.6203 54.7 40.1202 54.6001 40.5203 54.5C41.7203 54.3 42.8203 53.7 43.8203 52.8L58.9202 40.8C60.1203 39.8001 60.3204 38.0001 59.4204 36.8001ZM5.02031 58H2.02031V36.0001H5.02031V37.5001V57.0001V58ZM57.7203 39.5001L42.5203 51.3001L42.4203 51.4C41.7204 52 41.0203 52.4 40.2204 52.5001H40.1204C39.7205 52.6 39.4205 52.6 39.0204 52.6L25.8204 54.6001C23.9204 54.9001 21.9204 55 20.0204 55H7.02035V38.5C9.42035 36.8 15.0204 33.6001 17.8203 35.8C19.7203 37.2001 22.2204 38 24.7203 38H28.6203C30.9204 38 33.0204 39 34.3203 41C34.7203 41.6 34.8204 42.2 34.7203 42.4C34.4203 42.9001 33.2203 43.1 31.9203 43.2001C31.7856 43.2001 31.6513 43.2001 31.5204 43.2001C31.2626 43.2001 31.0194 43.2001 30.8204 43.2001H21.8204C18.7205 43.2001 16.8204 44.7001 16.8204 47.2C16.8204 47.8 17.2203 48.2 17.8203 48.2C18.4203 48.2 18.8203 47.8 18.8203 47.2C18.8203 46.7 18.8203 45.2 21.8203 45.2H30.7203C30.9277 45.2 31.1846 45.2 31.5204 45.2C31.6706 45.2 31.8349 45.2 32.0204 45.2C32.1204 45.2 32.3204 45.2 32.5205 45.2C37.2205 45.3 41.6204 45.2 43.9205 44L52.5205 38.7C56.7205 36.6 57.1205 37.1 57.9205 38.3C58.1203 38.6001 58.1203 39.2001 57.7203 39.5001Z" fill="white"/>
<path d="M7.82036 31.6C8.0204 31.8 8.3204 31.9999 8.6204 31.9999H51.4204C51.8204 31.9999 52.1204 31.7999 52.2205 31.4999L55.8205 26.4998C56.0205 26.1998 56.1205 25.7999 55.9204 25.4999C55.7204 25.1999 55.4204 24.9998 55.0204 24.9998H52.9974C52.4877 13.0955 42.9248 3.53262 31.0204 3.02285V1.99992H33.0205C33.6205 1.99992 34.0204 1.59996 34.0204 0.999961C34.0204 0.399961 33.6204 0 33.0204 0H27.0204C26.4204 0 26.0204 0.399961 26.0204 0.999961C26.0204 1.59996 26.4204 1.99992 27.0204 1.99992H29.0204V3.02285C17.116 3.53262 7.55318 13.0955 7.04341 24.9998H5.02029C4.62033 24.9998 4.22025 25.2998 4.12029 25.5998C4.02033 25.8998 4.02033 26.2998 4.22025 26.5998L7.82036 31.6ZM30.0204 5.00004C41.3204 5.00004 50.5203 13.9001 51.0204 25.0001H9.02036C9.62036 13.9 18.8203 5.00004 30.0204 5.00004ZM8.02029 27H52.0203H53.0203L50.9203 30H9.12033L7.02033 27H8.02029Z" fill="white"/>
<path d="M30.0204 7C23.3205 7 17.0205 10.6 13.5204 16.5C13.3204 17.0001 13.4205 17.6001 13.9204 17.9001C14.1204 18 14.2204 18 14.4204 18C14.8204 18 15.1204 17.8 15.3204 17.5C18.3204 12.3 24.0204 9.00004 30.0204 9.00004C30.6204 9.00004 31.0204 8.60008 31.0204 8.00008C31.0204 7.40008 30.6204 7 30.0204 7Z" fill="white"/>
</svg>
