<svg width="60" height="60" viewBox="0 0 60 60" fill="none" xmlns="http://www.w3.org/2000/svg">
<g clip-path="url(#clip0_1_144)">
<path d="M19.6312 29.7615H10.0029C9.34282 29.7615 8.80774 30.2966 8.80774 30.9567V38.8567C8.80774 39.5169 9.34282 40.0519 10.0029 40.0519H19.6312C20.2913 40.0519 20.8264 39.5169 20.8264 38.8567V30.9567C20.8264 30.2966 20.2913 29.7615 19.6312 29.7615ZM18.436 37.6614H11.1981V32.1517H18.436V37.6614Z" fill="white"/>
<path d="M49.997 29.7612H40.3688C39.7087 29.7612 39.1736 30.2963 39.1736 30.9564V38.8565C39.1736 39.5166 39.7087 40.0517 40.3688 40.0517H49.997C50.6571 40.0517 51.1922 39.5166 51.1922 38.8565V30.9564C51.1922 30.2964 50.6571 29.7612 49.997 29.7612ZM48.8018 37.6615H41.564V32.1519H48.8018V37.6615Z" fill="white"/>
<path d="M30.3041 16.4278C29.9836 15.8508 29.256 15.6428 28.6788 15.9634L26.8272 16.9919C26.2502 17.3124 26.0423 18.0403 26.3629 18.6172C26.5814 19.0105 26.9887 19.2322 27.4088 19.2322C27.6053 19.2322 27.8044 19.1837 27.9882 19.0816L29.8398 18.0531C30.4168 17.7324 30.6247 17.0047 30.3041 16.4278Z" fill="white"/>
<path d="M23.8852 19.9938C23.5648 19.4167 22.8371 19.2086 22.26 19.5294L12.0145 25.2211C11.4375 25.5417 11.2296 26.2694 11.5502 26.8464C11.7686 27.2396 12.176 27.4614 12.5961 27.4614C12.7925 27.4614 12.9916 27.4129 13.1754 27.3108L23.4208 21.619C23.998 21.2984 24.2057 20.5708 23.8852 19.9938Z" fill="white"/>
<path d="M28.1483 37.7849C27.4882 37.7849 26.9531 38.32 26.9531 38.9801V39.9676C26.9531 40.6278 27.4882 41.1628 28.1483 41.1628C28.8084 41.1628 29.3435 40.6278 29.3435 39.9676V38.9801C29.3435 38.32 28.8084 37.7849 28.1483 37.7849Z" fill="white"/>
<path d="M59.3965 26.9583L49.7108 21.4371V13.3048C49.7108 12.6447 49.1758 12.1096 48.5156 12.1096H41.9734C41.3133 12.1096 40.7782 12.6447 40.7782 13.3048V16.3451L30.5918 10.5385C30.225 10.3293 29.7749 10.3293 29.4081 10.5385L0.603537 26.9583C0.0300212 27.2852 -0.169901 28.0151 0.15717 28.5886C0.484123 29.1621 1.21408 29.362 1.78748 29.035L3.25315 28.1995V48.423C3.25315 49.0831 3.78822 49.6182 4.44834 49.6182H55.5518C56.2119 49.6182 56.747 49.0831 56.747 48.423V28.1995L58.2127 29.035C58.3995 29.1415 58.6028 29.192 58.8034 29.192C59.2187 29.192 59.6224 28.9752 59.8429 28.5885C60.1698 28.0151 59.97 27.2853 59.3965 26.9583ZM43.1686 14.5001H47.3204V20.0191L43.1686 17.6689V14.5001ZM34.0928 47.0427H25.907V32.0283H34.0928V47.0427ZM54.3565 47.2278H54.3564H36.4833V30.8331C36.4833 30.173 35.9482 29.6379 35.2881 29.6379H24.7119C24.0518 29.6379 23.5167 30.173 23.5167 30.8331V47.2278H5.64342V26.8369L30 12.9525L54.3566 26.8369L54.3565 47.2278Z" fill="white"/>
</g>
<defs>
<clipPath id="clip0_1_144">
<rect width="60" height="60" fill="white"/>
</clipPath>
</defs>
</svg>
