<svg width="60" height="61" viewBox="0 0 60 61" fill="none" xmlns="http://www.w3.org/2000/svg">
<g clip-path="url(#clip0_1_123)">
<path d="M47.5 60.5H12.5C12.1685 60.5 11.8505 60.3683 11.6161 60.1339C11.3817 59.8995 11.25 59.5815 11.25 59.25V44.2712C11.2545 42.9142 11.6986 41.5952 12.5157 40.5117C13.3328 39.4282 14.479 38.6387 15.7825 38.2612L23.515 36.7725C23.5924 36.7575 23.6711 36.75 23.75 36.75C24.0815 36.75 24.3995 36.6183 24.6339 36.3839C24.8683 36.1495 25 35.8315 25 35.5V31.75H27.5V35.5C27.5005 36.4733 27.1227 37.4086 26.4462 38.1084C25.7698 38.8082 24.8477 39.2176 23.875 39.25L16.3562 40.6937C15.5985 40.9364 14.9375 41.4139 14.469 42.057C14.0005 42.7001 13.7487 43.4756 13.75 44.2712V58H46.25V44.2712C46.2471 43.457 45.9805 42.6656 45.4901 42.0155C44.9998 41.3654 44.3121 40.8916 43.53 40.665L36.125 39.25C35.1523 39.2176 34.2302 38.8082 33.5538 38.1084C32.8773 37.4086 32.4995 36.4733 32.5 35.5V31.75H35V35.5C35 35.8315 35.1317 36.1495 35.3661 36.3839C35.6005 36.6183 35.9185 36.75 36.25 36.75C36.3289 36.75 36.4076 36.7575 36.485 36.7725L44.11 38.2362C45.4357 38.5985 46.6067 39.3843 47.4443 40.4739C48.282 41.5634 48.7405 42.8969 48.75 44.2712V59.25C48.75 59.5815 48.6183 59.8995 48.3839 60.1339C48.1495 60.3683 47.8315 60.5 47.5 60.5Z" fill="white"/>
<path d="M38.75 24.25V21.75C39.413 21.75 40.0489 21.4866 40.5178 21.0178C40.9866 20.5489 41.25 19.913 41.25 19.25C41.25 18.587 40.9866 17.9511 40.5178 17.4822C40.0489 17.0134 39.413 16.75 38.75 16.75V14.25C40.0761 14.25 41.3479 14.7768 42.2855 15.7145C43.2232 16.6521 43.75 17.9239 43.75 19.25C43.75 20.5761 43.2232 21.8479 42.2855 22.7855C41.3479 23.7232 40.0761 24.25 38.75 24.25Z" fill="white"/>
<path d="M21.25 24.25C19.9239 24.25 18.6521 23.7232 17.7145 22.7855C16.7768 21.8479 16.25 20.5761 16.25 19.25C16.25 17.9239 16.7768 16.6521 17.7145 15.7145C18.6521 14.7768 19.9239 14.25 21.25 14.25V16.75C20.587 16.75 19.9511 17.0134 19.4822 17.4822C19.0134 17.9511 18.75 18.587 18.75 19.25C18.75 19.913 19.0134 20.5489 19.4822 21.0178C19.9511 21.4866 20.587 21.75 21.25 21.75V24.25Z" fill="white"/>
<path d="M30 34.25C27.3488 34.247 24.807 33.1925 22.9322 31.3178C21.0575 29.4431 20.003 26.9013 20 24.25V15.48C19.5925 15.5 19.1775 15.5 18.75 15.5C18.5002 15.5002 18.256 15.4255 18.049 15.2856C17.842 15.1457 17.6817 14.9469 17.5888 14.715C17.5038 14.5012 15.5388 9.465 18.3275 5.34C20.5 2.125 24.8488 0.500001 31.25 0.500001C31.5815 0.500071 31.8994 0.631814 32.1338 0.866251L32.7463 1.47875L34.4413 0.631251C34.6148 0.544754 34.8061 0.49982 35 0.500001H36.25C38.5 0.500001 40 3.51 40 5.5V24.25C39.997 26.9013 38.9425 29.4431 37.0678 31.3178C35.1931 33.1925 32.6513 34.247 30 34.25ZM22.5 15.3063V24.25C22.5 26.2391 23.2902 28.1468 24.6967 29.5533C26.1032 30.9598 28.0109 31.75 30 31.75C31.9892 31.75 33.8968 30.9598 35.3033 29.5533C36.7099 28.1468 37.5 26.2391 37.5 24.25V15.1562C35.6376 14.5387 34.058 13.2744 33.0475 11.5925C29.932 13.7609 26.2869 15.0444 22.5 15.3063ZM30.7363 3C25.5025 3.07625 22.0263 4.3325 20.3975 6.7375C19.8506 7.67227 19.503 8.71007 19.3765 9.78565C19.2501 10.8612 19.3474 11.9514 19.6625 12.9875C29.3375 12.7375 32.7225 8.53375 32.7575 8.4875C32.9165 8.27986 33.1366 8.1273 33.3868 8.05132C33.6371 7.97534 33.9048 7.97975 34.1524 8.06394C34.4 8.14812 34.615 8.30785 34.767 8.52062C34.9191 8.73339 35.0006 8.98849 35 9.25C35.0839 9.95844 35.3617 10.63 35.8028 11.1906C36.2439 11.7513 36.8312 12.1793 37.5 12.4275V5.5C37.5 4.475 36.65 3.05375 36.25 3H35.2988L33.0625 4.125C32.8278 4.24213 32.5622 4.28246 32.3034 4.24029C32.0445 4.19811 31.8054 4.07556 31.62 3.89L30.7363 3Z" fill="white"/>
<path d="M30 43.0001C25.3275 43.0001 23.8487 37.2963 23.7875 37.0538L26.2125 36.4438C26.2225 36.4851 27.28 40.5001 30 40.5001C32.72 40.5001 33.7775 36.4851 33.7875 36.4438L36.2125 37.0538C36.1512 37.2963 34.6725 43.0001 30 43.0001Z" fill="white"/>
<path d="M20 50.5H17.5V59.25H20V50.5Z" fill="white"/>
<path d="M42.5 50.5H40V59.25H42.5V50.5Z" fill="white"/>
</g>
<defs>
<clipPath id="clip0_1_123">
<rect width="60" height="60" fill="white" transform="translate(0 0.5)"/>
</clipPath>
</defs>
</svg>
