<svg width="194" height="45" viewBox="0 0 194 45" fill="none" xmlns="http://www.w3.org/2000/svg">
<path d="M2.16 23V5.864H15.72V23H12.096V8.888H5.784V23H2.16ZM37.9948 14.408C37.9948 15.736 37.8268 16.944 37.4908 18.032C37.1708 19.104 36.6748 20.032 36.0028 20.816C35.3468 21.6 34.4988 22.2 33.4588 22.616C32.4348 23.032 31.2268 23.24 29.8348 23.24C28.4428 23.24 27.2268 23.032 26.1868 22.616C25.1628 22.184 24.3148 21.584 23.6428 20.816C22.9868 20.032 22.4908 19.096 22.1548 18.008C21.8348 16.92 21.6748 15.712 21.6748 14.384C21.6748 12.608 21.9628 11.064 22.5388 9.752C23.1308 8.44 24.0268 7.424 25.2268 6.704C26.4428 5.968 27.9868 5.6 29.8588 5.6C31.7148 5.6 33.2428 5.968 34.4428 6.704C35.6428 7.424 36.5308 8.448 37.1068 9.776C37.6988 11.088 37.9948 12.632 37.9948 14.408ZM25.4908 14.408C25.4908 15.608 25.6428 16.64 25.9468 17.504C26.2508 18.368 26.7228 19.032 27.3628 19.496C28.0028 19.96 28.8268 20.192 29.8348 20.192C30.8748 20.192 31.7068 19.96 32.3308 19.496C32.9708 19.032 33.4348 18.368 33.7228 17.504C34.0268 16.64 34.1788 15.608 34.1788 14.408C34.1788 12.6 33.8428 11.184 33.1708 10.16C32.4988 9.136 31.3948 8.624 29.8588 8.624C28.8348 8.624 28.0028 8.856 27.3628 9.32C26.7228 9.784 26.2508 10.448 25.9468 11.312C25.6428 12.176 25.4908 13.208 25.4908 14.408ZM54.7684 5.864V8.864H47.5684V23H43.9444V5.864H54.7684ZM65.2695 5.864C67.4775 5.864 69.0855 6.344 70.0935 7.304C71.1175 8.248 71.6295 9.552 71.6295 11.216C71.6295 11.968 71.5175 12.688 71.2935 13.376C71.0695 14.048 70.6935 14.656 70.1655 15.2C69.6535 15.728 68.9735 16.144 68.1255 16.448C67.2775 16.752 66.2295 16.904 64.9815 16.904H63.4215V23H59.7975V5.864H65.2695ZM65.0775 8.84H63.4215V13.928H64.6215C65.3095 13.928 65.9015 13.84 66.3975 13.664C66.8935 13.488 67.2775 13.208 67.5495 12.824C67.8215 12.44 67.9575 11.944 67.9575 11.336C67.9575 10.488 67.7255 9.864 67.2615 9.464C66.7975 9.048 66.0695 8.84 65.0775 8.84ZM85.7158 17.984C85.2358 19.072 84.7238 20.016 84.1798 20.816C83.6518 21.6 82.9718 22.2 82.1398 22.616C81.3078 23.032 80.2198 23.24 78.8758 23.24C78.4598 23.24 78.0038 23.208 77.5078 23.144C77.0118 23.08 76.5558 22.992 76.1398 22.88V19.76C76.5238 19.92 76.9478 20.032 77.4118 20.096C77.8758 20.16 78.3078 20.192 78.7078 20.192C79.2358 20.192 79.6598 20.104 79.9798 19.928C80.3158 19.752 80.5798 19.512 80.7718 19.208C80.9798 18.888 81.1478 18.544 81.2758 18.176L75.3478 5.864H79.1878L82.3798 13.28C82.4598 13.44 82.5558 13.648 82.6678 13.904C82.7798 14.16 82.8918 14.424 83.0038 14.696C83.1158 14.968 83.2038 15.208 83.2678 15.416H83.3878C83.4518 15.224 83.5318 14.992 83.6278 14.72C83.7398 14.432 83.8518 14.144 83.9638 13.856C84.0918 13.552 84.2038 13.288 84.2998 13.064L87.2758 5.864H91.0198L85.7158 17.984ZM99.5179 14.096L93.7579 5.864H97.5019L103.046 14.168V5.864H106.43V14.168L111.974 5.864H115.718L109.958 14.096L116.054 23H112.166L106.43 14.312V23H103.046V14.312L97.3099 23H93.4219L99.5179 14.096ZM131.111 23L129.863 18.92H123.623L122.375 23H118.463L124.511 5.792H128.951L135.023 23H131.111ZM127.751 11.888C127.671 11.616 127.567 11.272 127.439 10.856C127.311 10.44 127.183 10.016 127.055 9.584C126.927 9.152 126.823 8.776 126.743 8.456C126.663 8.776 126.551 9.176 126.407 9.656C126.279 10.12 126.151 10.568 126.023 11C125.911 11.416 125.823 11.712 125.759 11.888L124.535 15.872H128.999L127.751 11.888ZM153.393 0.223999C153.313 1.056 153.081 1.792 152.697 2.432C152.313 3.056 151.713 3.544 150.897 3.896C150.081 4.248 148.985 4.424 147.609 4.424C146.201 4.424 145.097 4.256 144.297 3.92C143.513 3.568 142.953 3.08 142.617 2.456C142.281 1.832 142.081 1.088 142.017 0.223999H145.209C145.289 1.104 145.513 1.688 145.881 1.976C146.249 2.264 146.849 2.408 147.681 2.408C148.369 2.408 148.929 2.256 149.361 1.952C149.809 1.632 150.073 1.056 150.153 0.223999H153.393ZM139.593 5.864H142.857V14.144C142.857 14.544 142.849 14.992 142.833 15.488C142.817 15.984 142.801 16.472 142.785 16.952C142.769 17.416 142.753 17.824 142.737 18.176C142.721 18.512 142.705 18.744 142.689 18.872H142.761L150.681 5.864H155.025V23H151.785V14.768C151.785 14.336 151.793 13.864 151.809 13.352C151.825 12.824 151.841 12.32 151.857 11.84C151.889 11.36 151.913 10.944 151.929 10.592C151.961 10.224 151.985 9.984 152.001 9.872H151.905L143.961 23H139.593V5.864ZM169.023 8.648C168.335 8.648 167.719 8.784 167.175 9.056C166.647 9.328 166.199 9.72 165.831 10.232C165.463 10.728 165.183 11.336 164.991 12.056C164.815 12.776 164.727 13.584 164.727 14.48C164.727 15.696 164.871 16.736 165.159 17.6C165.463 18.448 165.935 19.096 166.575 19.544C167.215 19.992 168.031 20.216 169.023 20.216C169.727 20.216 170.423 20.136 171.111 19.976C171.815 19.816 172.575 19.592 173.391 19.304V22.352C172.639 22.656 171.895 22.88 171.159 23.024C170.423 23.168 169.599 23.24 168.687 23.24C166.927 23.24 165.471 22.88 164.319 22.16C163.183 21.424 162.343 20.4 161.799 19.088C161.255 17.76 160.983 16.216 160.983 14.456C160.983 13.16 161.159 11.976 161.511 10.904C161.863 9.816 162.375 8.88 163.047 8.096C163.735 7.312 164.575 6.704 165.567 6.272C166.575 5.84 167.727 5.624 169.023 5.624C169.871 5.624 170.719 5.736 171.567 5.96C172.431 6.168 173.255 6.456 174.039 6.824L172.863 9.776C172.223 9.472 171.575 9.208 170.919 8.984C170.279 8.76 169.647 8.648 169.023 8.648ZM185.192 16.424L181.184 23H177.152L182.024 15.464C181.56 15.272 181.096 14.992 180.632 14.624C180.168 14.24 179.784 13.736 179.48 13.112C179.176 12.472 179.024 11.688 179.024 10.76C179.024 9.176 179.592 7.968 180.728 7.136C181.864 6.288 183.456 5.864 185.504 5.864H191.072V23H187.448V16.424H185.192ZM185.648 8.84C185.024 8.84 184.488 8.912 184.04 9.056C183.608 9.2 183.272 9.432 183.032 9.752C182.808 10.072 182.696 10.496 182.696 11.024C182.696 11.776 182.944 12.376 183.44 12.824C183.952 13.256 184.72 13.472 185.744 13.472H187.448V8.84H185.648Z" fill="white"/>
<path d="M5.223 41.13C4.82433 41.13 4.47767 41.0953 4.183 41.026C3.897 40.9653 3.62833 40.8743 3.377 40.753V39.765C3.637 39.869 3.91867 39.96 4.222 40.038C4.52533 40.116 4.86767 40.155 5.249 40.155C5.69967 40.155 6.08967 40.077 6.419 39.921C6.74833 39.7563 7.00833 39.505 7.199 39.167C7.38967 38.829 7.498 38.4 7.524 37.88H4.092V36.944H7.511C7.45033 36.2333 7.24667 35.7133 6.9 35.384C6.562 35.0547 6.06367 34.89 5.405 34.89C5.15367 34.89 4.87633 34.9247 4.573 34.994C4.27833 35.0633 4.014 35.1413 3.78 35.228L3.455 34.305C3.70633 34.1923 4.00533 34.097 4.352 34.019C4.69867 33.941 5.04533 33.902 5.392 33.902C6.042 33.902 6.614 34.0233 7.108 34.266C7.61067 34.5087 8.00067 34.8943 8.278 35.423C8.564 35.9517 8.707 36.6493 8.707 37.516C8.707 38.3393 8.55533 39.0197 8.252 39.557C7.95733 40.0943 7.54567 40.493 7.017 40.753C6.497 41.0043 5.899 41.13 5.223 41.13ZM16.9898 34.032H18.2378L15.2608 37.386L18.4848 41H17.1588L14.0128 37.464V41H12.8688V34.032H14.0128V37.412L16.9898 34.032ZM24.6308 41.13C24.0154 41.13 23.4651 41.0043 22.9798 40.753C22.5031 40.5017 22.1261 40.1117 21.8488 39.583C21.5801 39.0543 21.4458 38.3783 21.4458 37.555C21.4458 36.697 21.5888 35.9993 21.8748 35.462C22.1608 34.9247 22.5464 34.5303 23.0318 34.279C23.5258 34.0277 24.0848 33.902 24.7088 33.902C25.0641 33.902 25.4064 33.941 25.7358 34.019C26.0651 34.0883 26.3338 34.175 26.5418 34.279L26.1908 35.228C25.9828 35.15 25.7401 35.0763 25.4628 35.007C25.1854 34.9377 24.9254 34.903 24.6828 34.903C24.2148 34.903 23.8291 35.0027 23.5258 35.202C23.2224 35.4013 22.9971 35.696 22.8498 36.086C22.7024 36.476 22.6288 36.9613 22.6288 37.542C22.6288 38.0967 22.7024 38.569 22.8498 38.959C22.9971 39.349 23.2181 39.6437 23.5128 39.843C23.8074 40.0423 24.1758 40.142 24.6178 40.142C24.9991 40.142 25.3328 40.103 25.6188 40.025C25.9134 39.947 26.1821 39.8517 26.4248 39.739V40.753C26.1908 40.8743 25.9308 40.9653 25.6448 41.026C25.3674 41.0953 25.0294 41.13 24.6308 41.13ZM35.2319 34.994H32.9569V41H31.8259V34.994H29.5769V34.032H35.2319V34.994ZM42.2595 33.902C43.1175 33.902 43.8065 34.201 44.3265 34.799C44.8552 35.397 45.1195 36.2983 45.1195 37.503C45.1195 38.2917 44.9982 38.959 44.7555 39.505C44.5215 40.0423 44.1878 40.4497 43.7545 40.727C43.3298 40.9957 42.8272 41.13 42.2465 41.13C41.8912 41.13 41.5748 41.0823 41.2975 40.987C41.0202 40.8917 40.7818 40.7703 40.5825 40.623C40.3918 40.467 40.2272 40.298 40.0885 40.116H40.0105C40.0278 40.2633 40.0452 40.4497 40.0625 40.675C40.0798 40.9003 40.0885 41.0953 40.0885 41.26V44.12H38.9445V34.032H39.8805L40.0365 34.981H40.0885C40.2272 34.7817 40.3918 34.5997 40.5825 34.435C40.7818 34.2703 41.0158 34.1403 41.2845 34.045C41.5618 33.9497 41.8868 33.902 42.2595 33.902ZM42.0515 34.864C41.5835 34.864 41.2065 34.955 40.9205 35.137C40.6345 35.3103 40.4265 35.5747 40.2965 35.93C40.1665 36.2853 40.0972 36.736 40.0885 37.282V37.503C40.0885 38.075 40.1492 38.5603 40.2705 38.959C40.3918 39.3577 40.5955 39.661 40.8815 39.869C41.1762 40.077 41.5748 40.181 42.0775 40.181C42.5022 40.181 42.8488 40.064 43.1175 39.83C43.3948 39.596 43.5985 39.2797 43.7285 38.881C43.8672 38.4737 43.9365 38.01 43.9365 37.49C43.9365 36.6927 43.7805 36.0557 43.4685 35.579C43.1652 35.1023 42.6928 34.864 42.0515 34.864ZM50.3615 38.283C50.3615 38.361 50.3572 38.4737 50.3485 38.621C50.3485 38.7597 50.3442 38.9113 50.3355 39.076C50.3269 39.232 50.3182 39.3837 50.3095 39.531C50.3009 39.6697 50.2922 39.7823 50.2835 39.869L54.0145 34.032H55.4185V41H54.3525V36.892C54.3525 36.7533 54.3525 36.5713 54.3525 36.346C54.3612 36.1207 54.3699 35.8997 54.3785 35.683C54.3872 35.4577 54.3959 35.2887 54.4045 35.176L50.6995 41H49.2825V34.032H50.3615V38.283ZM67.4511 34.032V41H66.4241V36.554C66.4241 36.372 66.4284 36.1813 66.4371 35.982C66.4544 35.7827 66.4717 35.5877 66.4891 35.397H66.4501L64.1751 41H63.2131L61.0031 35.397H60.9641C60.9814 35.5877 60.9901 35.7827 60.9901 35.982C60.9987 36.1813 61.0031 36.385 61.0031 36.593V41H59.9761V34.032H61.4971L63.6941 39.635L65.9301 34.032H67.4511ZM76.1363 34.032H77.3843L74.4073 37.386L77.6313 41H76.3053L73.1593 37.464V41H72.0153V34.032H73.1593V37.412L76.1363 34.032ZM86.5401 41H85.3831V34.981H83.3291C83.2425 36.0817 83.1341 37.022 83.0041 37.802C82.8741 38.5733 82.7095 39.2017 82.5101 39.687C82.3108 40.1723 82.0725 40.5277 81.7951 40.753C81.5178 40.9783 81.1928 41.091 80.8201 41.091C80.7075 41.091 80.5948 41.0823 80.4821 41.065C80.3781 41.0563 80.2915 41.0347 80.2221 41V40.142C80.2741 40.1593 80.3305 40.1723 80.3911 40.181C80.4518 40.1897 80.5125 40.194 80.5731 40.194C80.7638 40.194 80.9371 40.116 81.0931 39.96C81.2491 39.804 81.3878 39.5657 81.5091 39.245C81.6391 38.9243 81.7561 38.5213 81.8601 38.036C81.9641 37.542 82.0551 36.9613 82.1331 36.294C82.2111 35.6267 82.2805 34.8727 82.3411 34.032H86.5401V41ZM89.9998 34.032H91.2218L92.7298 37.997C92.8164 38.231 92.8944 38.4563 92.9638 38.673C93.0418 38.8897 93.1111 39.102 93.1718 39.31C93.2324 39.5093 93.2801 39.7043 93.3148 39.895H93.3668C93.4188 39.6783 93.5011 39.3967 93.6138 39.05C93.7264 38.6947 93.8434 38.3393 93.9648 37.984L95.3818 34.032H96.6168L93.6138 41.962C93.4491 42.3953 93.2541 42.7723 93.0288 43.093C92.8121 43.4223 92.5434 43.6737 92.2228 43.847C91.9108 44.029 91.5294 44.12 91.0788 44.12C90.8708 44.12 90.6888 44.107 90.5328 44.081C90.3768 44.0637 90.2424 44.042 90.1298 44.016V43.106C90.2251 43.1233 90.3378 43.1407 90.4678 43.158C90.6064 43.1753 90.7494 43.184 90.8968 43.184C91.1654 43.184 91.3951 43.132 91.5858 43.028C91.7851 42.9327 91.9541 42.7897 92.0928 42.599C92.2314 42.417 92.3484 42.2003 92.4438 41.949L92.8078 41.026L89.9998 34.032ZM99.6947 36.814C99.6947 35.8 99.7944 34.9377 99.9937 34.227C100.202 33.5077 100.518 32.9357 100.943 32.511C101.376 32.0777 101.931 31.7873 102.607 31.64C103.17 31.5187 103.72 31.4103 104.258 31.315C104.795 31.2197 105.298 31.133 105.766 31.055L105.961 32.056C105.735 32.0907 105.484 32.134 105.207 32.186C104.929 32.2293 104.648 32.277 104.362 32.329C104.076 32.3723 103.798 32.42 103.53 32.472C103.27 32.5153 103.04 32.5587 102.841 32.602C102.555 32.6627 102.299 32.7667 102.074 32.914C101.848 33.0527 101.653 33.2433 101.489 33.486C101.333 33.7287 101.207 34.0277 101.112 34.383C101.016 34.7383 100.96 35.1587 100.943 35.644H101.021C101.142 35.4793 101.307 35.3103 101.515 35.137C101.731 34.9637 101.987 34.8163 102.282 34.695C102.585 34.5737 102.927 34.513 103.309 34.513C103.915 34.513 104.418 34.6473 104.817 34.916C105.224 35.176 105.527 35.54 105.727 36.008C105.935 36.476 106.039 37.022 106.039 37.646C106.039 38.4173 105.904 39.063 105.636 39.583C105.367 40.103 104.994 40.493 104.518 40.753C104.041 41.0043 103.486 41.13 102.854 41.13C102.377 41.13 101.944 41.039 101.554 40.857C101.164 40.6663 100.83 40.389 100.553 40.025C100.275 39.661 100.063 39.2103 99.9157 38.673C99.7684 38.1357 99.6947 37.516 99.6947 36.814ZM102.945 40.181C103.326 40.181 103.655 40.103 103.933 39.947C104.219 39.791 104.44 39.5353 104.596 39.18C104.752 38.8247 104.83 38.3523 104.83 37.763C104.83 37.0523 104.695 36.4933 104.427 36.086C104.167 35.67 103.733 35.462 103.127 35.462C102.745 35.462 102.399 35.5487 102.087 35.722C101.775 35.8867 101.515 36.0773 101.307 36.294C101.099 36.5107 100.951 36.6927 100.865 36.84C100.865 37.2647 100.895 37.6763 100.956 38.075C101.016 38.4737 101.12 38.8333 101.268 39.154C101.424 39.466 101.636 39.7173 101.905 39.908C102.182 40.09 102.529 40.181 102.945 40.181ZM120.767 34.032V40.038H121.781V43.418H120.676V41H115.827V43.418H114.735V40.038H115.294C115.693 39.4833 116.022 38.881 116.282 38.231C116.551 37.5723 116.75 36.8877 116.88 36.177C117.019 35.4577 117.093 34.7427 117.101 34.032H120.767ZM118.115 34.929C118.081 35.5183 117.99 36.1293 117.842 36.762C117.695 37.386 117.504 37.984 117.27 38.556C117.045 39.128 116.781 39.622 116.477 40.038H119.662V34.929H118.115ZM128.126 33.915C128.975 33.915 129.604 34.1013 130.011 34.474C130.418 34.8467 130.622 35.4403 130.622 36.255V41H129.79L129.569 40.012H129.517C129.318 40.2633 129.11 40.4757 128.893 40.649C128.685 40.8137 128.442 40.935 128.165 41.013C127.896 41.091 127.567 41.13 127.177 41.13C126.761 41.13 126.384 41.0563 126.046 40.909C125.717 40.7617 125.457 40.5363 125.266 40.233C125.075 39.921 124.98 39.531 124.98 39.063C124.98 38.3697 125.253 37.8367 125.799 37.464C126.345 37.0827 127.186 36.8747 128.321 36.84L129.504 36.801V36.385C129.504 35.8043 129.378 35.4013 129.127 35.176C128.876 34.9507 128.52 34.838 128.061 34.838C127.697 34.838 127.35 34.8943 127.021 35.007C126.692 35.111 126.384 35.2323 126.098 35.371L125.747 34.513C126.05 34.3483 126.41 34.2097 126.826 34.097C127.242 33.9757 127.675 33.915 128.126 33.915ZM128.464 37.633C127.597 37.6677 126.995 37.8063 126.657 38.049C126.328 38.2917 126.163 38.634 126.163 39.076C126.163 39.466 126.28 39.752 126.514 39.934C126.757 40.116 127.064 40.207 127.437 40.207C128.026 40.207 128.516 40.0467 128.906 39.726C129.296 39.3967 129.491 38.894 129.491 38.218V37.594L128.464 37.633ZM140.756 31.146C140.721 31.5793 140.613 31.9433 140.431 32.238C140.258 32.5327 139.998 32.7537 139.651 32.901C139.304 33.0483 138.854 33.122 138.299 33.122C137.736 33.122 137.281 33.0483 136.934 32.901C136.596 32.7537 136.349 32.537 136.193 32.251C136.037 31.9563 135.942 31.588 135.907 31.146H136.973C137.016 31.614 137.138 31.9303 137.337 32.095C137.545 32.251 137.874 32.329 138.325 32.329C138.724 32.329 139.036 32.2467 139.261 32.082C139.495 31.9087 139.634 31.5967 139.677 31.146H140.756ZM136.193 38.283C136.193 38.361 136.189 38.4737 136.18 38.621C136.18 38.7597 136.176 38.9113 136.167 39.076C136.158 39.232 136.15 39.3837 136.141 39.531C136.132 39.6697 136.124 39.7823 136.115 39.869L139.846 34.032H141.25V41H140.184V36.892C140.184 36.7533 140.184 36.5713 140.184 36.346C140.193 36.1207 140.201 35.8997 140.21 35.683C140.219 35.4577 140.227 35.2887 140.236 35.176L136.531 41H135.114V34.032H136.193V38.283ZM151.411 35.787C151.411 36.2203 151.281 36.5583 151.021 36.801C150.761 37.0437 150.427 37.2083 150.02 37.295V37.347C150.453 37.4077 150.83 37.5637 151.151 37.815C151.471 38.0577 151.632 38.439 151.632 38.959C151.632 39.2537 151.575 39.5267 151.463 39.778C151.359 40.0293 151.194 40.246 150.969 40.428C150.743 40.61 150.453 40.753 150.098 40.857C149.742 40.9523 149.313 41 148.811 41H145.808V34.032H148.798C149.292 34.032 149.734 34.0883 150.124 34.201C150.522 34.305 150.834 34.487 151.06 34.747C151.294 34.9983 151.411 35.345 151.411 35.787ZM150.449 38.959C150.449 38.5603 150.297 38.2743 149.994 38.101C149.69 37.9277 149.244 37.841 148.655 37.841H146.952V40.077H148.681C149.253 40.077 149.69 39.9947 149.994 39.83C150.297 39.6567 150.449 39.3663 150.449 38.959ZM150.254 35.93C150.254 35.6007 150.132 35.3623 149.89 35.215C149.656 35.059 149.27 34.981 148.733 34.981H146.952V36.892H148.525C149.088 36.892 149.517 36.814 149.812 36.658C150.106 36.502 150.254 36.2593 150.254 35.93ZM156.717 38.283C156.717 38.361 156.712 38.4737 156.704 38.621C156.704 38.7597 156.699 38.9113 156.691 39.076C156.682 39.232 156.673 39.3837 156.665 39.531C156.656 39.6697 156.647 39.7823 156.639 39.869L160.37 34.032H161.774V41H160.708V36.892C160.708 36.7533 160.708 36.5713 160.708 36.346C160.716 36.1207 160.725 35.8997 160.734 35.683C160.742 35.4577 160.751 35.2887 160.76 35.176L157.055 41H155.638V34.032H156.717V38.283ZM167.475 34.032V36.931H171.258V34.032H172.402V41H171.258V37.893H167.475V41H166.331V34.032H167.475ZM181.2 34.032V34.994H178.093V41H176.949V34.032H181.2ZM187.552 33.915C188.401 33.915 189.029 34.1013 189.437 34.474C189.844 34.8467 190.048 35.4403 190.048 36.255V41H189.216L188.995 40.012H188.943C188.743 40.2633 188.535 40.4757 188.319 40.649C188.111 40.8137 187.868 40.935 187.591 41.013C187.322 41.091 186.993 41.13 186.603 41.13C186.187 41.13 185.81 41.0563 185.472 40.909C185.142 40.7617 184.882 40.5363 184.692 40.233C184.501 39.921 184.406 39.531 184.406 39.063C184.406 38.3697 184.679 37.8367 185.225 37.464C185.771 37.0827 186.611 36.8747 187.747 36.84L188.93 36.801V36.385C188.93 35.8043 188.804 35.4013 188.553 35.176C188.301 34.9507 187.946 34.838 187.487 34.838C187.123 34.838 186.776 34.8943 186.447 35.007C186.117 35.111 185.81 35.2323 185.524 35.371L185.173 34.513C185.476 34.3483 185.836 34.2097 186.252 34.097C186.668 33.9757 187.101 33.915 187.552 33.915ZM187.89 37.633C187.023 37.6677 186.421 37.8063 186.083 38.049C185.753 38.2917 185.589 38.634 185.589 39.076C185.589 39.466 185.706 39.752 185.94 39.934C186.182 40.116 186.49 40.207 186.863 40.207C187.452 40.207 187.942 40.0467 188.332 39.726C188.722 39.3967 188.917 38.894 188.917 38.218V37.594L187.89 37.633Z" fill="white"/>
</svg>
