<svg width="60" height="60" viewBox="0 0 60 60" fill="none" xmlns="http://www.w3.org/2000/svg">
<path d="M55.2032 48.1109H45.998V43.2258C46.1981 42.2898 47.5578 35.4546 46.4616 27.4019C45.7788 22.3863 44.2761 17.9531 41.9953 14.2253C39.1843 9.631 35.1876 6.11434 30.1141 3.76697V0.894604C30.1141 0.400427 29.7135 0 29.2195 0C27.258 0 25.6623 1.59585 25.6623 3.55721V8.64358C25.4769 9.24979 24.5737 12.1212 22.9551 15.9937C22.7647 16.4495 22.9797 16.9736 23.4355 17.1641C23.5482 17.2112 23.665 17.2335 23.7802 17.2335C24.1302 17.2335 24.4625 17.0268 24.6061 16.6838C25.0006 15.7397 25.3523 14.8576 25.6624 14.0514V17.8367C25.6624 18.3308 26.0629 18.7313 26.557 18.7313C27.051 18.7313 27.4516 18.3308 27.4516 17.8367V8.76557C27.4516 8.76382 27.4516 8.76194 27.4516 8.76007V3.55721C27.4516 2.90846 27.8028 2.34022 28.3251 2.03261V42.2347H27.4516V25.9341C27.4516 25.44 27.051 25.0395 26.557 25.0395C26.0629 25.0395 25.6624 25.44 25.6624 25.9341V33.2884C23.6781 32.6276 20.603 33.0157 16.4891 34.4515C15.5105 34.793 14.5718 35.159 13.7229 35.511C15.3034 33.577 16.835 31.4184 18.3008 29.0576C18.5614 28.6378 18.4324 28.0863 18.0127 27.8258C17.5928 27.5653 17.0414 27.6942 16.7808 28.1139C14.5078 31.7751 12.0791 34.9268 9.56196 37.4816C9.25329 37.795 9.21825 38.2862 9.47923 38.6402C9.6529 38.8758 9.92313 39.0041 10.1998 39.0041C10.339 39.0041 10.4799 38.9715 10.6106 38.9038C10.6404 38.8883 13.6463 37.3388 17.0787 36.1408C21.2872 34.6718 24.328 34.3592 25.6624 35.2538V42.2348H12.6928C12.1988 42.2348 11.7982 42.6353 11.7982 43.1294V48.111H4.7968C4.30274 48.111 3.90219 48.5115 3.90219 49.0056V55.4873C3.90219 57.9755 5.92659 59.9999 8.41482 59.9999H46.456C51.7724 59.9999 56.0977 55.6746 56.0977 50.3583V49.0056C56.0977 48.5114 55.6972 48.1109 55.2032 48.1109ZM44.6818 27.5922C45.4417 33.123 44.9744 38.1584 44.5876 40.8595C40.9756 36.7787 34.3957 35.5125 31.2463 35.1313C33.647 32.0902 35.1683 28.7206 35.7751 25.093C36.3311 21.7693 36.1218 18.2332 35.1529 14.583C34.2978 11.3614 33.0139 8.64417 31.9626 6.75676C39.0891 10.9993 43.3629 17.9931 44.6818 27.5922ZM30.1141 7.13551C31.1512 8.926 32.5402 11.7135 33.4237 15.042C35.2911 22.0778 34.1768 28.3351 30.1141 33.6729V7.13551ZM30.1141 36.8155C32.4317 37.0316 39.8954 38.0407 43.409 42.2347H30.1141V36.8155ZM13.5874 46.9489H21.0766C21.5707 46.9489 21.9712 46.5485 21.9712 46.0543C21.9712 45.5601 21.5707 45.1597 21.0766 45.1597H13.5874V44.0238H26.5569H29.2195H44.2088V48.1108H13.5874V46.9489ZM54.3086 50.3581C54.3086 54.688 50.7859 58.2104 46.4561 58.2104H8.41482C6.91307 58.2104 5.6914 56.9887 5.6914 55.487V49.8999H12.6928H45.1034H54.3086V50.3581Z" fill="white"/>
<path d="M10.6599 51.2629C9.14878 51.2629 7.91937 52.4925 7.91937 54.0036C7.91937 55.5147 9.14878 56.7442 10.6599 56.7442C12.171 56.7442 13.4006 55.5147 13.4006 54.0036C13.4006 52.4925 12.1711 51.2629 10.6599 51.2629ZM10.6599 54.955C10.1354 54.955 9.70858 54.5282 9.70858 54.0036C9.70858 53.4789 10.1354 53.0521 10.6599 53.0521C11.1844 53.0521 11.6113 53.4789 11.6113 54.0036C11.6113 54.5282 11.1847 54.955 10.6599 54.955Z" fill="white"/>
<path d="M18.4396 51.2629C16.9285 51.2629 15.6989 52.4925 15.6989 54.0036C15.6989 55.5147 16.9284 56.7442 18.4396 56.7442C19.9507 56.7442 21.1801 55.5147 21.1801 54.0036C21.1801 52.4925 19.9507 51.2629 18.4396 51.2629ZM18.4396 54.955C17.9151 54.955 17.4882 54.5282 17.4882 54.0036C17.4882 53.4789 17.9149 53.0521 18.4396 53.0521C18.9641 53.0521 19.3909 53.4789 19.3909 54.0036C19.3909 54.5282 18.9641 54.955 18.4396 54.955Z" fill="white"/>
<path d="M26.219 51.2629C24.7079 51.2629 23.4784 52.4925 23.4784 54.0036C23.4784 55.5147 24.7078 56.7442 26.219 56.7442C27.7302 56.7442 28.9596 55.5147 28.9596 54.0036C28.9596 52.4925 27.7302 51.2629 26.219 51.2629ZM26.219 54.955C25.6945 54.955 25.2676 54.5282 25.2676 54.0036C25.2676 53.4789 25.6944 53.0521 26.219 53.0521C26.7436 53.0521 27.1704 53.4789 27.1704 54.0036C27.1704 54.5282 26.7437 54.955 26.219 54.955Z" fill="white"/>
</svg>
