<svg width="1522" height="84" viewBox="0 0 1522 84" fill="none" xmlns="http://www.w3.org/2000/svg">
<path d="M2 34C2 34 28.4998 51.0242 86 13C117.624 -7.91247 142.5 13 186.5 41.5C221.688 64.2922 254.11 22.2715 296 23.9758C329.442 25.3363 346.531 40.9759 380 40.9758C425.195 40.9756 446.554 5.2422 491.5 9.97576C524.279 13.4279 537.046 40.3582 570 40.9758C600.561 41.5484 614.108 20.2332 644.5 16.9758C690.307 12.0662 713.948 42.2217 760 40.9758C806.685 39.7127 829.205 3.82453 875.5 9.97576C906.738 14.1263 918.754 36.8867 950 40.9758C986.609 45.7666 1006.08 24.2454 1043 23.9758C1081.46 23.6949 1101.58 42.737 1140 40.9758C1188.11 38.7701 1209.52 -6.12117 1257 1.97576C1288.86 7.40952 1298.62 33.2442 1330 40.9758C1377.08 52.5752 1404.81 18.5972 1453 23.9758C1479.83 26.9699 1520 40.9758 1520 40.9758" stroke="#2D4B6D"/>
<path d="M1 73.5C1 73.5 18.5 87.5 91.5 50.5C125.317 33.3597 138.5 53.5 191 76.9758C229.273 94.0896 255.11 58.2715 297 59.9758C330.442 61.3363 347.531 76.9759 381 76.9758C426.195 76.9756 447.554 41.2422 492.5 45.9758C525.279 49.4279 538.046 76.3582 571 76.9758C601.561 77.5484 615.108 56.2332 645.5 52.9758C691.307 48.0662 714.948 78.2217 761 76.9758C807.685 75.7127 830.205 39.8245 876.5 45.9758C907.738 50.1263 919.754 72.8867 951 76.9758C987.609 81.7666 1007.08 60.2454 1044 59.9758C1082.46 59.6949 1102.58 78.737 1141 76.9758C1189.11 74.7701 1210.52 29.8788 1258 37.9758C1289.86 43.4095 1299.62 69.2442 1331 76.9758C1378.08 88.5752 1405.81 54.5972 1454 59.9758C1480.83 62.9699 1521 76.9758 1521 76.9758" stroke="#2D4B6D" stroke-width="3"/>
<path d="M1.5 52.5C1.5 52.5 24 71 92 26C124.433 4.53695 141 39 191 58.2489C230.175 73.3305 255.11 37.0774 297 39.0064C330.441 40.5464 347.531 58.249 381 58.2489C426.195 58.2486 447.554 17.8018 492.5 23.1597C525.279 27.0672 538.046 57.5499 571 58.2489C601.561 58.8971 615.108 34.7702 645.5 31.0831C691.307 25.5259 714.948 59.6591 761 58.2489C807.685 56.8192 830.205 16.1971 876.5 23.1597C907.738 27.8578 919.754 53.6205 951 58.2489C987.608 63.6716 1007.08 39.3117 1044 39.0064C1082.46 38.6885 1102.58 60.2424 1141 58.2489C1189.11 55.7523 1210.52 4.9395 1258 14.1045C1289.86 20.255 1299.62 49.4974 1331 58.2489C1378.08 71.3784 1405.81 32.9185 1454 39.0064C1480.83 42.3955 1521 58.2489 1521 58.2489" stroke="#2D4B6D" stroke-width="2"/>
<path d="M1328.76 48.6496C1328.62 53.1059 1331.6 55.9416 1331.6 55.9416H1326C1322.44 55.9416 1330 58.9998 1330 58.9998C1332.34 58.9998 1335 59.9998 1335 59.9998L1339 60.4998L1343 60.9998L1347 61.4998H1350.5H1352.5H1354.5H1355.5H1356.5H1357.5L1358.5 60.9998H1360.5L1361.5 60.4998L1364 59.9998H1368.5L1376.5 55.9998L1369.27 55.9416C1369.27 55.9416 1371.7 53.511 1371.7 48.6496C1371.7 45.4087 1369.27 42.9781 1369.27 42.9781V22.3174H1365.22V34.8758C1365.22 34.8758 1361.17 25.5583 1349.83 25.5583C1336.05 25.5583 1334.03 40.1423 1334.03 40.1423C1334.03 40.1423 1328.91 43.7883 1328.76 48.6496Z" fill="#2D4B6D"/>
<path d="M1362.79 42.168H1337.67C1337.67 42.168 1332.41 44.1935 1332.41 49.46C1332.41 53.377 1335.78 56.3469 1339.7 56.3469C1344.15 56.3469 1345.77 53.5111 1345.77 53.5111C1345.77 53.5111 1347.88 49.3481 1350.23 49.46C1352.47 49.5664 1354.28 53.5111 1354.28 53.5111C1354.28 53.5111 1355.5 56.3469 1361.17 56.3469C1364.97 56.3469 1368.06 53.2635 1368.06 49.46C1368.06 45.0037 1362.79 42.168 1362.79 42.168Z" fill="white"/>
<circle cx="1367.65" cy="19.0767" r="1.21533" fill="#2D4B6D"/>
<circle cx="1369.68" cy="16.2409" r="0.810223" fill="#2D4B6D"/>
<circle cx="1365.63" cy="14.6204" r="1.62045" fill="#2D4B6D"/>
<path d="M190.711 48.6496C190.574 53.1059 193.547 55.9416 193.547 55.9416H187.951C184.396 55.9416 191.951 58.9998 191.951 58.9998C194.287 58.9998 196.951 59.9998 196.951 59.9998L200.951 60.4998L204.951 60.9998L208.951 61.4998H212.451H214.451H216.451H217.451H218.451H219.451L220.451 60.9998H222.451L223.451 60.4998L225.951 59.9998L230 58.9998L238.451 55.9998L231.222 55.9416C231.222 55.9416 233.653 53.511 233.653 48.6496C233.653 45.4087 231.222 42.9781 231.222 42.9781V22.3174H227.171V34.8758C227.171 34.8758 223.12 25.5583 211.777 25.5583C197.997 25.5583 195.978 40.1423 195.978 40.1423C195.978 40.1423 190.861 43.7883 190.711 48.6496Z" fill="#2D4B6D"/>
<path d="M224.741 42.168H199.624C199.624 42.168 194.357 44.1935 194.357 49.46C194.358 53.377 197.732 56.3469 201.649 56.3469C206.105 56.3469 207.726 53.5111 207.726 53.5111C207.726 53.5111 209.833 49.3481 212.182 49.46C214.417 49.5664 216.233 53.5111 216.233 53.5111C216.233 53.5111 217.448 56.3469 223.12 56.3469C226.924 56.3469 230.007 53.2635 230.007 49.46C230.007 45.0037 224.741 42.168 224.741 42.168Z" fill="white"/>
<circle cx="229.602" cy="19.0767" r="1.21533" fill="#2D4B6D"/>
<circle cx="231.628" cy="16.2409" r="0.810223" fill="#2D4B6D"/>
<circle cx="227.577" cy="14.6204" r="1.62045" fill="#2D4B6D"/>
<path d="M729.394 57.8207C729.195 64.2983 733.516 68.4204 733.516 68.4204L722.5 69.9999C717.332 69.9999 731.197 72.8658 731.197 72.8658C734.592 72.8658 738.465 74.3194 738.465 74.3194L744.279 75.0462L750.094 75.7731L755.908 76.4999H760.996H763.903H766.81H768.264H769.717H771.171L772.625 75.7731H775.532L776.985 75.0462L780.619 74.3194L787 72.8658L798.79 68.505L788.281 68.4204C788.281 68.4204 791.815 64.8872 791.815 57.8207C791.815 53.1097 788.281 49.5765 788.281 49.5765V19.5439H782.393V37.799C782.393 37.799 776.504 24.2549 760.015 24.2549C739.985 24.2549 737.049 45.4544 737.049 45.4544C737.049 45.4544 729.612 50.7542 729.394 57.8207Z" fill="#2D4B6D"/>
<path d="M778.86 48.3989H742.35C742.35 48.3989 734.693 51.3433 734.694 58.9986C734.695 64.6924 739.6 69.0095 745.294 69.0095C751.771 69.0095 754.127 64.8874 754.127 64.8874C754.127 64.8874 757.19 58.836 760.605 58.9986C763.853 59.1533 766.494 64.8874 766.494 64.8874C766.494 64.8874 768.259 69.0095 776.504 69.0095C782.033 69.0095 786.515 64.5275 786.515 58.9986C786.515 52.521 778.86 48.3989 778.86 48.3989Z" fill="white"/>
<circle cx="785.926" cy="14.833" r="1.76662" fill="#2D4B6D"/>
<circle cx="788.87" cy="10.7109" r="1.17775" fill="#2D4B6D"/>
<circle cx="782.981" cy="8.35549" r="2.35549" fill="#2D4B6D"/>
</svg>
